<?xml version="1.0" standalone="no"?>
<!DOCTYPE svg PUBLIC "-//W3C//DTD SVG 20010904//EN"
 "http://www.w3.org/TR/2001/REC-SVG-20010904/DTD/svg10.dtd">
<svg version="1.0" xmlns="http://www.w3.org/2000/svg"
 width="512.000000pt" height="512.000000pt" viewBox="0 0 512.000000 512.000000"
 preserveAspectRatio="xMidYMid meet">

<g transform="translate(0.000000,512.000000) scale(0.100000,-0.100000)"
fill="#000000" stroke="none">
<path d="M2245 4945 c-737 -97 -1386 -512 -1789 -1145 -64 -100 -186 -351
-231 -475 -45 -122 -99 -334 -120 -475 -23 -147 -30 -439 -16 -596 22 -242 82
-485 177 -716 265 -651 822 -1176 1484 -1401 1121 -382 2337 65 2945 1081 156
260 260 550 317 878 30 174 32 566 5 744 -23 147 -77 364 -122 488 -51 138
-183 400 -261 517 -409 614 -1046 1010 -1774 1101 -141 17 -477 17 -615 -1z
m1461 -1561 c15 -11 42 -37 58 -58 l31 -38 3 -814 c2 -737 1 -817 -14 -847
-23 -45 -53 -76 -96 -98 -36 -18 -75 -19 -1128 -19 -1053 0 -1092 1 -1128 19
-43 22 -73 53 -96 98 -14 29 -16 115 -16 832 0 471 4 810 9 824 14 37 71 98
106 113 24 11 237 13 1137 11 1101 -2 1107 -2 1134 -23z"/>
<path d="M1611 3203 c31 -32 197 -209 369 -393 172 -184 331 -350 354 -367 62
-49 134 -73 220 -73 89 0 158 20 218 62 25 18 155 150 288 293 134 143 301
322 373 398 l129 137 -1003 0 -1003 0 55 -57z"/>
<path d="M1470 2404 c0 -547 3 -723 12 -732 19 -19 2141 -17 2157 2 8 9 10
209 9 731 l-3 718 -355 -379 c-195 -209 -372 -394 -394 -412 -91 -77 -207
-117 -336 -117 -99 0 -159 15 -251 61 -71 35 -105 68 -438 424 -173 184 -333
355 -357 380 l-44 45 0 -721z"/>
</g>
</svg>
